<svg id="2to6strikeSVG" class="strikeSVG" width="100%" height="100%" viewBox="0 0 600 600" xmlns="http://www.w3.org/2000/svg">
    <g>
        <path transform="rotate(-90 299.5 295)" d="m52.5,57c0,1 0.63297,5.19801 4,11c5.42917,9.35543 15.64767,20.38729 31,34c18.58557,16.47958 44.03291,36.96187 73,62c30.03418,25.96051 62.22144,53.76553 94,84c29.20508,27.78601 62,59 92,89c32,32 61.97113,60.02771 85,84c25.96747,27.03128 45.7948,47.21909 65,65c20.7807,19.23959 37.31384,30.73053 45,40c3.72186,4.48859 4,6 5,7l0,-1l-1,-1" id="svg_8" fill-opacity="0" stroke-width="40" stroke="#000" fill="none"/>
    </g>
</svg>