<svg class="oSVG" width="100%" height="100%" viewBox="0 0 600 600" xmlns="http://www.w3.org/2000/svg">
    <g>
        <path stroke="#c2410c" fill-opacity="0" stroke-width="40" d="m298.01103,165.50389c-9.04095,0 -22.93433,-3.01461 -49.72522,3.28062c-23.72574,5.57499 -45.11731,15.68454 -65.86977,34.4465c-18.65972,16.86995 -31.58917,36.2881 -38.10114,59.05115c-7.65504,26.75873 -7.25125,52.14125 2.58313,80.37517c11.24604,32.28674 26.63039,57.36771 57.4746,78.73486c29.79474,20.64013 66.43254,26.16972 105.26248,28.70542c32.89776,2.1483 68.59292,-3.33408 88.47214,-19.68372c21.93121,-18.0373 36.32784,-47.61874 41.33005,-74.63409c5.66589,-30.59982 5.4491,-67.12352 -1.29156,-95.95812c-7.33812,-31.39038 -22.99487,-61.94558 -47.14209,-82.01548c-22.23342,-18.47926 -52.95413,-26.24495 -84.59745,-31.16588l-32.93488,-1.64031l-8.39517,0" id="svg_15" fill="#000000"/>
    </g>
</svg>