<svg id="tieStrikeSVG" class="strikeSVG" width="100%" height="100%" viewBox="0 0 600 600" xmlns="http://www.w3.org/2000/svg">
    <g>
        <path stroke="#000" d="m23.50003,44.52878c1.0511,0 2.18464,-0.8494 5.25548,-2.15078c6.51424,-2.76066 13.66425,-6.45234 24.17521,-11.82929c6.30658,-3.22617 10.70647,-6.12171 12.61316,-7.52773c1.20589,-0.88924 2.42875,0.01039 2.10219,5.37695c-0.52657,8.65332 -4.08031,20.46232 -7.35767,34.41249c-3.03851,12.93347 -5.85402,26.72311 -9.45987,41.94022c-2.52555,10.65812 -7.92254,22.31451 -5.25548,25.80937c0.64686,0.84763 3.98925,-3.50188 10.51096,-8.60312c10.19271,-7.97269 24.09364,-17.35625 50.45262,-32.26171c23.0535,-13.03628 42.47043,-24.04778 60.96358,-36.56327c7.54131,-5.10369 7.92653,-6.78202 7.35767,-5.37695c-0.40224,0.99353 -2.04986,3.26945 -6.30658,8.60312c-5.19216,6.50578 -13.98547,15.85928 -25.22631,30.11093c-10.8262,13.72595 -24.44434,32.05066 -38.89056,51.61874c-11.78394,15.96189 -25.58912,34.15124 -33.63508,46.24179c-7.71289,11.59002 -12.13091,15.80118 -11.56206,17.20625c0.40224,0.99353 8.31708,-5.51994 17.86864,-11.82929c24.9918,-16.50854 54.67407,-30.07119 97.75195,-49.46796c35.75147,-16.09789 70.29065,-34.62817 93.54757,-49.46796c18.81385,-12.00476 30.43746,-21.37932 36.78837,-23.65859c0.99185,-0.35596 0.81928,0.89395 -3.15329,6.45234c-6.71078,9.38967 -14.42727,20.69264 -28.3796,36.56327c-14.42245,16.40541 -33.96706,35.09462 -62.01468,60.22186c-21.27772,19.06224 -51.60272,46.12069 -83.03661,73.12654c-27.41524,23.55331 -55.02013,45.95755 -75.67893,69.90037c-15.86253,18.38413 -23.96045,35.58591 -27.3285,43.01561c-0.9889,2.18143 0.23411,2.44759 4.20439,-1.07539c6.73778,-5.97871 16.78874,-15.10112 34.68618,-26.88476c26.23535,-17.27329 56.7592,-35.48788 103.00744,-64.52342c46.24824,-29.03554 88.29209,-55.9203 132.43813,-86.03123c44.14604,-30.11093 78.83222,-55.9203 108.26292,-77.42811c22.07302,-16.13086 38.08691,-30.90219 45.19714,-37.63866c1.09065,-1.03333 0.68722,-0.31675 -1.0511,2.15078c-5.49702,7.803 -12.52866,19.42101 -27.3285,39.78944c-18.81266,25.89115 -37.3083,52.08046 -70.42345,91.40818c-32.07553,38.09306 -69.1432,74.47715 -105.10963,113.99138c-35.51419,39.01736 -63.9391,76.79153 -86.1899,109.68982c-16.4234,24.28237 -31.76581,50.387 -42.04385,66.6742c-10.75706,17.04629 -20.40652,30.53809 -26.27741,38.71405c-5.73744,7.99011 -11.9577,11.91567 -13.66425,16.13086c-0.40224,0.99354 -0.39669,-0.31112 2.10219,-3.22617c7.36738,-8.59443 19.96085,-17.22039 38.89056,-31.18632c26.26357,-19.37668 69.03266,-48.89278 118.77388,-83.88045c54.29152,-38.18834 96.18003,-68.18128 152.40896,-117.21755c41.3882,-36.09394 80.30872,-72.94401 112.4673,-113.99138c25.37573,-32.38972 41.43683,-56.7157 53.60591,-77.42811c8.73166,-14.86181 12.48549,-28.50488 15.76644,-27.96015c1.0375,0.17226 -2.44696,5.18609 -6.30658,12.90468c-5.78449,11.56799 -11.75125,26.79871 -21.02193,48.39257c-9.65772,22.49536 -18.25433,44.47982 -34.68618,73.12654c-13.13947,22.90687 -33.99049,50.2869 -54.65701,80.65428c-20.32329,29.86305 -38.933,58.04259 -63.06578,95.70974c-17.90014,27.93905 -35.73727,55.9203 -49.40153,78.5035c-13.66425,22.5832 -28.64686,43.39906 -36.78837,61.29725c-3.78921,8.33021 -5.17548,11.41775 -4.20439,11.82929c6.86661,2.91 12.82037,-10.45979 23.12412,-18.28164c15.02906,-11.40899 30.60606,-23.48511 53.60591,-40.86483c21.13727,-15.97228 45.17818,-34.44042 69.37235,-51.61874c27.30714,-19.38856 43.98492,-27.8058 55.7081,-37.63866c3.44865,-2.89257 3.33783,-2.0455 2.10219,0c-2.76298,4.57392 -8.12643,13.47622 -12.61316,21.50781c-5.13689,9.19539 -12.90473,25.68906 -17.86864,38.71405c-8.93858,23.45439 -13.77392,39.74895 -22.07302,63.44803c-6.3912,18.25085 -11.81592,35.4338 -13.66425,45.16639c-1.21947,6.42123 -0.9711,10.09005 0,9.67851c2.74665,-1.164 9.63353,-7.2197 18.91973,-12.90468c15.01155,-9.19005 33.06793,-22.51441 52.55481,-33.3371c23.55151,-13.08013 42.41344,-20.86437 58.86139,-31.18632c6.461,-4.0546 6.73782,-2.97564 4.20439,1.07539c-3.62732,5.80021 -7.50888,11.7288 -11.56206,18.28164c-3.27743,5.29868 -7.77884,12.58664 -11.56206,18.28164c-4.76349,7.17067 -7.46526,14.32572 -10.51096,21.50781c-2.43945,5.75246 -6.49115,9.78379 -5.25548,11.82929c0.55262,0.91478 4.87697,-2.91348 12.61316,-6.45234c6.06876,-2.7761 10.18872,-3.71956 11.56206,-4.30156c0.9711,-0.41154 2.10219,0 3.15329,0c1.0511,0 3.15329,0 6.30658,0c2.10219,0 2.10219,-1.07539 3.15329,-1.07539l-1.0511,0" id="svg_31" fill-opacity="0" stroke-width="40" fill="none"/>
    </g>
</svg>